<svg xmlns="http://www.w3.org/2000/svg" width="300" height="300" fill="none">
  <rect width="242.34" height="251.688" x="30.8713" y="21.3069" fill="#3B9EEE" rx="12"/>
  <path fill="#1486E2" d="m141.555 274.274 149.55012516-34.57114663 7.99008835 25.7260765-149.55012516 34.57114663z"/>
  <path fill="#1486E2" d="m273.094 0 26.90628213 265.32311155-30.75383408 2.32127044L242.34016593 2.32127044z"/>
  <path fill="#1486E2" d="M29.3278 0h243.883v26.6336H29.3278z"/>
  <path fill="#1486E2" d="M0 265.323 26.90628213-.00011155 57.6601162 2.3211589 30.75383407 267.64427044z"/>
  <path fill="#1486E2" d="m7.99011 239.703 149.54427933 34.56979526-7.99008835 25.7260765L.00002165 265.4290765z"/>
  <path fill="#fff" d="M149.305 207.4c-22 0-36.934-10.933-44.8-32.8l15.8-6.6c6 15.467 15.733 23.2 29.2 23.2 8 0 14.6-2.133 19.8-6.4 5.2-4.4 7.8-10.6 7.8-18.6 0-7.867-2.467-14.133-7.4-18.8-4.934-4.8-12.067-7.2-21.4-7.2h-10.4v-16h9c7.466 0 13.466-2.067 18-6.2 4.533-4.267 6.8-9.867 6.8-16.8 0-6.6667-2.134-12.0667-6.4-16.2-4.267-4.1333-9.467-6.2-15.6-6.2-11.6 0-20.067 6.4667-25.4 19.4l-15.8-6.2c3.2-8.4 8.266-15.4 15.2-21 7.066-5.6 15.6-8.4 25.6-8.4 11.6 0 21.2 3.4 28.8 10.2 7.6 6.8 11.4 15.6 11.4 26.4 0 6.267-1.6 12.2-4.8 17.8-3.2 5.467-7.467 9.667-12.8 12.6 7.2 2.933 12.866 7.533 17 13.8 4.133 6.267 6.2 13.733 6.2 22.4 0 12.133-4.4 22.133-13.2 30-8.8 7.733-19.667 11.6-32.6 11.6Z"/>
</svg>