<svg xmlns="http://www.w3.org/2000/svg" width="300" height="300" fill="none">
  <g clip-path="url(#a)">
    <path fill="#3B9EEE" stroke="#1486E2" stroke-width="15" d="m144.832 286.871 4.668 3.711 4.668-3.711 126.015-100.193 3.963-3.151-1.441-4.854-48.134-162.1152-1.593-5.3653H66.0217l-1.593 5.3653L16.2952 178.673l-1.4412 4.854 3.9634 3.151L144.832 286.871Z"/>
    <path fill="#fff" d="M148.894 240.456c-31.68 0-53.1844-15.744-64.5124-47.232l22.7524-9.504c8.64 22.272 22.656 33.408 42.048 33.408 11.52 0 21.024-3.072 28.512-9.216 7.488-6.336 11.232-15.264 11.232-26.784 0-11.328-3.552-20.352-10.656-27.072-7.104-6.912-17.376-10.368-30.816-10.368h-14.976v-23.04h12.96c10.752 0 19.392-2.976 25.92-8.928 6.528-6.144 9.792-14.208 9.792-24.192 0-9.6-3.072-17.376-9.216-23.328-6.144-5.952-13.632-8.928-22.464-8.928-16.704 0-28.896 9.312-36.576 27.936L90.1416 74.28c4.608-12.096 11.9044-22.176 21.8884-30.24 10.176-8.064 22.464-12.096 36.864-12.096 16.704 0 30.528 4.896 41.472 14.688 10.944 9.792 16.416 22.464 16.416 38.016 0 9.024-2.304 17.568-6.912 25.632-4.608 7.872-10.752 13.92-18.432 18.144 10.368 4.224 18.528 10.848 24.48 19.872 5.952 9.024 8.928 19.776 8.928 32.256 0 17.472-6.336 31.872-19.008 43.2-12.672 11.136-28.32 16.704-46.944 16.704Z"/>
  </g>
</svg>