<svg xmlns="http://www.w3.org/2000/svg" width="300" height="300" fill="none">
  <g clip-path="url(#a)">
    <path fill="#389BC7" d="m145.494 165.163 109.91987117 97.44168955-42.18451555 37.39569947-109.91987116-97.44168955z"/>
    <path fill="#60AFD2" d="m98.8904 199.142 91.2116-80.858c10.332-9.159 27.084-9.159 37.416 0l4.769 4.228c10.332 9.159 10.332 24.009 0 33.168l-91.212 80.857-42.1846-37.395ZM62.7076 166.166c-10.3319-9.159-10.3319-24.008 0-33.167L194.031 16.5838c10.331-9.15902 27.083-9.159 37.415 0l4.769 4.2279c10.332 9.1591 10.332 24.0088 0 33.1678L86.1845 186.978l-23.4769-20.812Z"/>
  </g>
</svg>