<svg xmlns="http://www.w3.org/2000/svg" width="300" height="300" fill="none">
  <g clip-path="url(#a)">
    <path fill="#EE8B3B" stroke="#E27014" stroke-width="15" d="m144.832 286.871 4.668 3.711 4.668-3.711 126.015-100.193 3.963-3.151-1.441-4.854-48.134-162.1152-1.593-5.3653H66.0217l-1.593 5.3653L16.2952 178.673l-1.4412 4.854 3.9634 3.151L144.832 286.871Z"/>
    <path fill="#fff" d="M144.286 240.456c-13.248 0-25.152-2.4-35.712-7.2-10.5604-4.8-18.5284-10.464-23.9044-16.992l14.112-18.432c13.6324 13.248 28.8004 19.872 45.5044 19.872 12.864 0 23.424-4.32 31.68-12.96 8.448-8.832 12.672-19.68 12.672-32.544 0-12.48-3.36-22.752-10.08-30.816-6.528-8.064-15.456-12.096-26.784-12.096-14.784 0-27.36 5.952-37.728 17.856l-21.8884-8.064L105.694 35.4h97.344v23.04h-76.032l-9.216 61.632c10.176-9.6 22.752-14.4 37.728-14.4 17.472 0 31.584 6.144 42.336 18.432 10.944 12.288 16.416 27.936 16.416 46.944 0 19.008-6.432 35.328-19.296 48.96-12.864 13.632-29.76 20.448-50.688 20.448Z"/>
  </g>
</svg>