<svg xmlns="http://www.w3.org/2000/svg" width="300" height="300" fill="none">
  <rect width="242.34" height="251.688" x="30.8713" y="21.3069" fill="#EE8B3C" rx="12"/>
  <path fill="#E27014" d="m141.555 274.274 149.55012516-34.57114663 7.99008835 25.7260765-149.55012516 34.57114663z"/>
  <path fill="#E27014" d="m273.094 0 26.90628213 265.32311155-30.75383408 2.32127044L242.34016593 2.32127044z"/>
  <path fill="#E27014" d="M29.3278 0h243.883v26.6336H29.3278z"/>
  <path fill="#E27014" d="M0 265.323 26.90628213-.00011155 57.6601162 2.3211589 30.75383407 267.64427044z"/>
  <path fill="#E27014" d="m7.99011 239.703 149.54427933 34.56979526-7.99008835 25.7260765L.00002165 265.4290765z"/>
  <path fill="#fff" d="M146.105 207.4c-9.2 0-17.467-1.667-24.8-5-7.334-3.333-12.867-7.267-16.6-11.8l9.8-12.8c9.466 9.2 20 13.8 31.6 13.8 8.933 0 16.266-3 22-9 5.866-6.133 8.8-13.667 8.8-22.6 0-8.667-2.334-15.8-7-21.4-4.534-5.6-10.734-8.4-18.6-8.4-10.267 0-19 4.133-26.2 12.4l-15.2-5.6 9.4-72h67.6v16h-52.8l-6.4 42.8c7.066-6.667 15.8-10 26.2-10 12.133 0 21.933 4.267 29.4 12.8 7.6 8.533 11.4 19.4 11.4 32.6 0 13.2-4.467 24.533-13.4 34-8.934 9.467-20.667 14.2-35.2 14.2Z"/>
</svg>