<svg xmlns="http://www.w3.org/2000/svg" width="300" height="300" fill="none">
  <path fill="#3379CC" d="m128 118 86.603 129.75H41.3975L128 118Z"/>
  <path fill="#3379CC" d="m28.421 99.1446 34.86681443-3.050451 12.98629283 148.43400621-34.86681443 3.050451zM192.407 96.0941l34.86681443 3.050451-12.98629282 148.4340062-34.86681444-3.05045099z"/>
  <rect width="35" height="200" x="28" y="131" fill="#3379CC" rx="5" transform="rotate(-90 28 131)"/>
  <path fill="#3379CC" d="M59 210v-79h133v79zM222 141h40c5.523 0 10 4.477 10 10v10h-50v-20ZM214 204h58v10c0 5.523-4.477 10-10 10h-48v-20Z"/>
  <rect width="81" height="20" x="252" y="224" fill="#3379CC" rx="10" transform="rotate(-90 252 224)"/>
  <path fill="#C33" d="M113.578 88.4498c.017.0169.035.0336.052.0502-.217.5799-.175.5529-.052-.0502C108.682 83.7434 92.6443 71.153 96.63 58c5-16.5 7.154-13.8935 14.5-23.5 6.5-8.5 9.5-18 9.5-21.5 6.833 5.1667 7.5 16 1 21.5-7.681 6.4996-15 18.5-12 26.5 5.869 15.6507 4.39 25.2798 3.948 27.4498Z"/>
  <path stroke="#D65C5C" d="M113.63 88.5c-4.833-4.6667-21-17.3-17-30.5 5-16.5 7.154-13.8935 14.5-23.5 6.5-8.5 9.5-18 9.5-21.5 6.833 5.1667 7.5 16 1 21.5-7.681 6.4996-15 18.5-12 26.5 7.5 20 3 30.1667 4 27.5Z"/>
  <path fill="#C33" stroke="#D65C5C" d="M128.507 46.9372c-3.98 16.3437 16.524 39.711 24.416 44.0657-.482-5.5049-11.396-15.7293-13.651-41.4942-.871-9.9619 13.66-22.4343 22.552-29.0761 7.784-5.8139 20.547-11.8358 12.664-10.1424-7.882 1.6935-16.63 4.9684-25.614 11.2754-11.427 8.0214-15.392 4.9419-20.367 25.3716Z"/>
</svg>