<svg xmlns="http://www.w3.org/2000/svg" width="300" height="300" fill="none">
  <circle cx="150" cy="150" r="150" fill="#000510"/>
  <path stroke="#3BAAC4" stroke-width="10" d="M286 150.5c0 2.461-1.961 6.091-8.775 10.36-6.555 4.107-16.373 7.99-28.95 11.323C223.195 178.83 188.27 183 149.5 183s-73.6946-4.17-98.7747-10.817c-12.5769-3.333-22.3952-7.216-28.9507-11.323C14.9614 156.591 13 152.961 13 150.5c0-2.461 1.9614-6.091 8.7746-10.36 6.5555-4.107 16.3738-7.99 28.9507-11.323C75.8054 122.17 110.73 118 149.5 118c38.77 0 73.695 4.17 98.775 10.817 12.577 3.333 22.395 7.216 28.95 11.323 6.814 4.269 8.775 7.899 8.775 10.36Z"/>
  <path stroke="#3BAAC4" stroke-width="10" d="M228.047 38.0388c2.427 1.6994 4.424 5.7419 4.252 13.8278-.167 7.8644-2.395 18.2551-6.683 30.5685-8.552 24.5589-24.904 55.6629-47.105 87.3699-22.201 31.707-45.837 57.71-65.99 74.146-10.104 8.241-19.1059 13.889-26.439 16.735-7.5396 2.927-12.0211 2.434-14.448.734-2.427-1.699-4.4234-5.742-4.2518-13.828.1668-7.864 2.3951-18.255 6.6829-30.568 8.552-24.559 24.9038-55.663 47.1049-87.37 22.202-31.7065 45.837-57.7103 65.99-74.1463 10.104-8.2406 19.106-13.8884 26.439-16.7349 7.54-2.9267 12.021-2.4333 14.448-.734Z"/>
  <path stroke="#3BAAC4" stroke-width="10" d="M231.047 264.42c-2.427 1.7-6.908 2.193-14.448-.734-7.333-2.846-16.335-8.494-26.439-16.735-20.153-16.436-43.788-42.439-65.99-74.146-22.201-31.707-38.5529-62.811-47.1049-87.3699-4.2878-12.3134-6.5161-22.7041-6.6829-30.5685-.1715-8.0859 1.8249-12.1284 4.2518-13.8278 2.427-1.6994 6.9085-2.1927 14.4481.734 7.333 2.8466 16.3349 8.4943 26.4389 16.7349 20.153 16.436 43.789 42.4393 65.99 74.1463 22.201 31.707 38.553 62.811 47.105 87.37 4.288 12.313 6.516 22.704 6.683 30.568.172 8.086-1.825 12.129-4.252 13.828Z"/>
  <circle cx="150" cy="150" r="15" fill="#3B66C4"/>
</svg>